<svg width="106" height="106" viewBox="0 0 106 106" fill="none" xmlns="http://www.w3.org/2000/svg">
<rect x="3" y="3" width="100" height="100" rx="7" fill="#1A1A1A" stroke="#DFFE52" stroke-width="5"/>
<path d="M79.0233 67.445C79.0233 70.845 78.1449 73.7067 76.3883 76.03C74.6316 78.2967 72.2516 80.025 69.2483 81.215C66.3016 82.405 63.0716 83 59.5583 83H30.4033V22.65H62.7033C65.5366 22.65 67.9733 23.415 70.0133 24.945C72.1099 26.4183 73.6966 28.345 74.7733 30.725C75.9066 33.0483 76.4733 35.485 76.4733 38.035C76.4733 40.925 75.7366 43.6733 74.2633 46.28C72.7899 48.8867 70.6366 50.8133 67.8033 52.06C71.26 53.08 73.98 54.9217 75.9633 57.585C78.0033 60.2483 79.0233 63.535 79.0233 67.445ZM67.2083 65.235C67.2083 63.705 66.8966 62.345 66.2733 61.155C65.6499 59.9083 64.7999 58.945 63.7233 58.265C62.7033 57.5283 61.5133 57.16 60.1533 57.16H42.1333V73.055H59.5583C60.975 73.055 62.25 72.715 63.3833 72.035C64.5733 71.2983 65.5083 70.335 66.1883 69.145C66.8683 67.955 67.2083 66.6517 67.2083 65.235ZM42.1333 32.68V47.895H57.7733C59.0766 47.895 60.2666 47.5833 61.3433 46.96C62.4199 46.3367 63.2699 45.4583 63.8933 44.325C64.5733 43.1917 64.9133 41.8317 64.9133 40.245C64.9133 38.715 64.6016 37.3833 63.9783 36.25C63.4116 35.1167 62.6183 34.2383 61.5983 33.615C60.6349 32.9917 59.5299 32.68 58.2833 32.68H42.1333Z" fill="#DFFE52"/>
</svg>
