<!DOCTYPE svg PUBLIC "-//W3C//DTD SVG 1.1//EN" "http://www.w3.org/Graphics/SVG/1.1/DTD/svg11.dtd">
<!-- Uploaded to: SVG Repo, www.svgrepo.com, Transformed by: SVG Repo Mixer Tools -->
<svg version="1.1" id="designs" xmlns="http://www.w3.org/2000/svg" xmlns:xlink="http://www.w3.org/1999/xlink" width="800px" height="800px" viewBox="0 0 32 32" xml:space="preserve" fill="#000000">
<g id="SVGRepo_bgCarrier" stroke-width="0"/>
<g id="SVGRepo_tracerCarrier" stroke-linecap="round" stroke-linejoin="round"/>
<g id="SVGRepo_iconCarrier"> <style type="text/css"> .sketchy_een{fill:#111918;} </style> <path class="sketchy_een" d="M26.521,28.72c-0.019-0.715-0.008-1.431-0.027-2.146c-0.023-0.758-0.06-1.517-0.086-2.275 c-0.031-0.784-0.056-1.569-0.079-2.353c-0.021-0.773-0.038-1.55-0.104-2.321c-0.067-0.786-0.199-1.569-0.422-2.327 c-0.224-0.76-0.524-1.504-0.982-2.154c-0.445-0.629-1.047-1.197-1.742-1.534c-0.315-0.154-0.65-0.261-0.976-0.385 c-0.263-0.099-0.523-0.209-0.783-0.317c0.003-0.256,0.005-0.513,0.008-0.769c0.187-0.003,0.375-0.005,0.562-0.009 c0.328-0.004,0.662-0.002,0.99-0.033c0.209-0.019,0.387-0.071,0.541-0.222c0.115-0.117,0.177-0.271,0.201-0.432 c0.125-0.138,0.207-0.315,0.207-0.512c0.002-0.744,0.027-1.487,0.047-2.231c0.055-0.107,0.093-0.222,0.093-0.346 c0-0.407-0.343-0.779-0.757-0.779c-0.007,0-0.015,0-0.022,0c-0.825,0.025-1.651,0.044-2.476,0.062 c-0.117,0.003-0.235,0.002-0.352,0.004c0.086-0.606,0.178-1.213,0.29-1.815C20.804,5,21.02,4.193,21.226,3.379 c0.107-0.424-0.132-0.867-0.558-0.984c-0.009-0.002-0.019-0.001-0.029-0.004c-0.148-0.178-0.361-0.299-0.606-0.297 c-0.311,0.002-0.62,0.015-0.93,0.011c-0.313-0.006-0.627-0.025-0.94-0.032c-0.627-0.015-1.256-0.008-1.883-0.027 C15.58,2.025,14.877,2,14.174,2c-0.747,0-1.493,0.029-2.233,0.122c-0.232,0.029-0.42,0.073-0.593,0.246 C11.25,2.465,11.19,2.589,11.15,2.719c-0.052,0.106-0.085,0.219-0.071,0.326c0.105,0.869,0.24,1.734,0.368,2.599 c0.1,0.666,0.177,1.338,0.315,1.997C10.826,7.646,9.89,7.648,8.953,7.663C8.532,7.67,8.189,7.989,8.136,8.401 c-0.058,0.115-0.098,0.24-0.099,0.376C8.034,9.516,8.012,10.266,8.072,11c0.017,0.226,0.077,0.422,0.242,0.587 c0.042,0.042,0.097,0.066,0.147,0.097c0.139,0.262,0.406,0.452,0.717,0.449c0.109-0.002,0.219,0,0.33,0.002 c0.061,0.001,0.12-0.006,0.177-0.019c0.422-0.01,0.845-0.001,1.267,0.005c0.047,0.374,0.085,0.749,0.114,1.125 c-0.265,0.074-0.531,0.143-0.789,0.239c-0.41,0.152-0.817,0.313-1.201,0.524c-0.353,0.194-0.681,0.418-1.001,0.662 c-0.353,0.269-0.696,0.556-0.984,0.896c-0.303,0.357-0.579,0.725-0.8,1.139c-0.203,0.385-0.362,0.813-0.466,1.237 c-0.207,0.85-0.267,1.726-0.293,2.599c-0.046,1.45-0.057,2.902-0.052,4.354c0.004,0.679,0.038,1.356,0.096,2.035 c0.052,0.601,0.117,1.199,0.208,1.795c-0.052,0.103-0.087,0.213-0.087,0.333c0,0.414,0.347,0.765,0.763,0.763 c0.832-0.004,1.663-0.019,2.493-0.025c0.761-0.006,1.519,0.01,2.279,0.04c0.384,0.017,0.767,0.042,1.151,0.065 c0.393,0.027,0.788,0.032,1.182,0.05c0.786,0.034,1.577,0.05,2.365,0.046c0.794-0.002,1.588-0.039,2.382-0.069 c0.756-0.029,1.511-0.04,2.267-0.05c0.752-0.011,1.502-0.013,2.252-0.059c0.708-0.042,1.419-0.081,2.129-0.086 c0.19-0.002,0.378,0.002,0.568-0.006c0.281-0.014,0.522-0.167,0.658-0.393C26.384,29.195,26.527,28.976,26.521,28.72z M14.212,3.612 c0.692-0.021,1.377-0.032,2.068,0.002c0.608,0.029,1.218,0.017,1.826,0.04c0.322,0.011,0.643,0.031,0.963,0.04 c0.156,0.006,0.311,0.002,0.467,0.002c-0.123,0.574-0.251,1.146-0.346,1.726c-0.063,0.387-0.119,0.775-0.174,1.162 c-0.052,0.358-0.118,0.713-0.156,1.072c-0.203,0.001-0.407,0.005-0.61,0.007c-0.909,0.011-1.818-0.002-2.726-0.015 c-0.724-0.009-1.448-0.019-2.171-0.019c-0.004-0.048,0.003-0.095-0.011-0.142c-0.13-0.428-0.207-0.875-0.274-1.316 c-0.065-0.437-0.128-0.876-0.188-1.313c-0.048-0.377-0.09-0.755-0.133-1.133C13.233,3.678,13.721,3.628,14.212,3.612z M14.08,9.205 c1.678-0.019,3.355,0.031,5.031,0.034c0.664,0.002,1.323-0.029,1.987-0.05c0.395-0.013,0.79-0.031,1.186-0.044 c0.001,0.486,0.001,0.971,0.001,1.458c-0.177,0.004-0.353,0.012-0.529,0.019c-0.37,0.015-0.738,0.033-1.109,0.038 c-0.771,0.01-1.542,0.019-2.313,0.025c-0.811,0.008-1.625-0.004-2.436-0.01c-0.819-0.006-1.638-0.019-2.455-0.058 c-0.704-0.031-1.408-0.063-2.112-0.079c-0.533-0.01-1.066-0.026-1.6-0.037c0.003-0.154-0.002-0.307,0.003-0.461 C9.74,9.8,9.745,9.557,9.75,9.315c0.638-0.019,1.277-0.038,1.915-0.064C12.471,9.219,13.274,9.215,14.08,9.205z M24.466,28.214 c-0.347,0.017-0.696,0.036-1.043,0.052c-0.756,0.032-1.508,0.084-2.263,0.09c-0.783,0.008-1.563,0.008-2.344,0.036 c-0.769,0.029-1.536,0.062-2.305,0.083c-0.783,0.021-1.565,0.013-2.348-0.008c-0.804-0.019-1.605-0.065-2.409-0.096 c-0.374-0.013-0.748-0.031-1.122-0.042c-0.386-0.011-0.771-0.006-1.157-0.004c-0.733,0-1.464-0.017-2.197-0.024 c-0.01-0.064-0.02-0.129-0.029-0.194c-0.042-0.347-0.062-0.698-0.088-1.046c-0.027-0.361-0.058-0.719-0.073-1.08 c-0.035-0.737-0.042-1.471-0.04-2.208c0.004-0.775,0.013-1.552,0.036-2.327c0.022-0.738,0.05-1.473,0.128-2.207 c0.081-0.512,0.2-1.003,0.382-1.49c0.133-0.275,0.283-0.531,0.458-0.784c0.166-0.2,0.338-0.393,0.522-0.577 c0.168-0.17,0.353-0.323,0.541-0.472c0.444-0.317,0.908-0.588,1.406-0.812c0.446-0.172,0.901-0.297,1.368-0.406 c0.331-0.076,0.552-0.38,0.588-0.704c0.111-0.136,0.187-0.301,0.185-0.487c-0.004-0.448-0.043-0.896-0.09-1.342 c0.467,0.023,0.933,0.046,1.4,0.057c0.819,0.019,1.638,0.01,2.457,0.004c0.781-0.004,1.561-0.017,2.342-0.048 c0.316-0.011,0.63-0.01,0.946-0.015c0.005,0.458,0.016,0.915,0.014,1.372c0,0.338,0.224,0.626,0.527,0.738 c0.088,0.065,0.188,0.115,0.301,0.163c0.345,0.14,0.69,0.276,1.043,0.397c0.231,0.078,0.462,0.151,0.688,0.236 c0.226,0.106,0.438,0.232,0.641,0.377c0.251,0.209,0.486,0.429,0.697,0.679c0.2,0.282,0.371,0.577,0.52,0.889 c0.138,0.343,0.262,0.691,0.365,1.047c0.115,0.397,0.179,0.802,0.239,1.209c0.087,0.74,0.105,1.489,0.127,2.233 c0.023,0.769,0.033,1.536,0.05,2.305c0.033,1.46,0.049,2.923,0.046,4.385C24.804,28.199,24.635,28.206,24.466,28.214z M15.695,21.695c0.447,0.034,0.903-0.044,1.322-0.203c0.397-0.151,0.725-0.384,1.049-0.654c0.637-0.527,0.93-1.39,0.869-2.202 c-0.036-0.497-0.153-0.951-0.362-1.402c-0.146-0.311-0.393-0.589-0.65-0.813c-0.199-0.176-0.416-0.328-0.652-0.447 c-0.164-0.083-0.342-0.12-0.514-0.109c-0.115-0.064-0.245-0.107-0.369-0.107c-0.018,0-0.035,0.001-0.053,0.003 c-0.293,0.029-0.587,0.061-0.878,0.121c-0.284,0.057-0.556,0.178-0.819,0.297c-0.399,0.182-0.723,0.52-0.967,0.878 c-0.341,0.501-0.501,1.042-0.556,1.638c-0.017,0.18-0.025,0.357-0.015,0.537c0.021,0.405,0.146,0.786,0.347,1.135 C13.913,21.181,14.784,21.624,15.695,21.695z M14.94,18.653c0.028-0.144,0.064-0.282,0.11-0.42c0.056-0.109,0.118-0.211,0.187-0.311 c0.033-0.037,0.068-0.073,0.104-0.108c0.062-0.039,0.124-0.075,0.19-0.108c0.16-0.056,0.322-0.098,0.489-0.132 c0.105-0.011,0.209-0.021,0.314-0.031c0.042-0.004,0.082-0.009,0.121-0.015c0.046,0.028,0.091,0.056,0.135,0.086 c0.091,0.081,0.177,0.167,0.258,0.26c0.052,0.077,0.098,0.155,0.139,0.237c0.057,0.18,0.096,0.362,0.126,0.547 c0.009,0.123,0.01,0.242,0.003,0.363c-0.014,0.066-0.031,0.13-0.051,0.193c-0.031,0.054-0.062,0.106-0.096,0.156 c-0.063,0.068-0.129,0.133-0.198,0.194c-0.113,0.078-0.229,0.149-0.351,0.214c-0.121,0.039-0.24,0.069-0.364,0.092 c-0.101,0.004-0.199,0.004-0.299-0.001c-0.116-0.023-0.228-0.054-0.341-0.092c-0.063-0.035-0.123-0.071-0.182-0.11 c-0.056-0.052-0.108-0.104-0.159-0.16c-0.036-0.057-0.069-0.115-0.101-0.175c-0.017-0.051-0.033-0.103-0.047-0.156 C14.916,19.001,14.923,18.828,14.94,18.653z M20.033,26.952c-0.102,0.171-0.269,0.301-0.46,0.353 c-0.217,0.06-0.399,0.011-0.595-0.077c-0.988-0.449-1.912-1.011-2.808-1.617c-0.069-0.047-0.139-0.092-0.208-0.138 c-0.944,0.592-1.892,1.178-2.855,1.742c-0.384,0.224-0.892,0.09-1.116-0.293c-0.222-0.38-0.092-0.894,0.293-1.114 c0.724-0.414,1.448-0.827,2.165-1.252c-0.499-0.265-1.003-0.52-1.507-0.78c-0.387-0.201-0.501-0.737-0.288-1.099 c0.151-0.259,0.414-0.39,0.687-0.39c0.139,0,0.281,0.034,0.412,0.103c0.596,0.312,1.193,0.627,1.776,0.967 c0.145,0.084,0.286,0.177,0.428,0.268c0.896-0.586,1.807-1.158,2.761-1.638c0.133-0.068,0.276-0.102,0.416-0.102 c0.272,0,0.533,0.129,0.687,0.39c0.213,0.365,0.102,0.903-0.29,1.103c-0.524,0.271-1.049,0.543-1.557,0.838 c-0.193,0.114-0.385,0.231-0.576,0.348c0.759,0.491,1.54,0.944,2.358,1.334C20.137,26.076,20.233,26.613,20.033,26.952z"/> </g>
</svg>